<svg width="1200" height="680" viewBox="0 0 1200 680" fill="none" xmlns="http://www.w3.org/2000/svg" role="img" aria-labelledby="title desc">
  <title id="title">Plataforma web SaaS de software puro</title>
  <desc id="desc">Interfaz web con módulos de agenda, tickets, clientes, API y autenticación.</desc>
  <rect width="1200" height="680" fill="#020407"/>
  <defs>
    <radialGradient id="glow" cx="0" cy="0" r="1" gradientUnits="userSpaceOnUse" gradientTransform="translate(180 580) rotate(-35) scale(900 650)">
      <stop stop-color="#00D4FF" stop-opacity="0.24"/>
      <stop offset="0.44" stop-color="#00D4FF" stop-opacity="0.06"/>
      <stop offset="1" stop-color="#00D4FF" stop-opacity="0"/>
    </radialGradient>
    <filter id="blur"><feGaussianBlur stdDeviation="10"/></filter>
  </defs>
  <rect width="1200" height="680" fill="url(#glow)"/>
  <g opacity="0.18" stroke="#1D7C91" stroke-width="1">
    <path d="M0 120H1200M0 240H1200M0 360H1200M0 480H1200M0 600H1200"/>
    <path d="M150 0V680M300 0V680M450 0V680M600 0V680M750 0V680M900 0V680M1050 0V680"/>
  </g>
  <g filter="url(#blur)" opacity="0.48" fill="#00D4FF">
    <rect x="202" y="142" width="796" height="424" rx="34"/>
  </g>
  <rect x="188" y="128" width="824" height="452" rx="28" fill="#071014" stroke="#00D4FF" stroke-opacity="0.65" stroke-width="2"/>
  <rect x="188" y="128" width="824" height="72" rx="28" fill="#0B171D"/>
  <circle cx="238" cy="165" r="11" fill="#00D4FF" fill-opacity="0.9"/>
  <circle cx="274" cy="165" r="11" fill="#00D4FF" fill-opacity="0.35"/>
  <circle cx="310" cy="165" r="11" fill="#00D4FF" fill-opacity="0.18"/>
  <rect x="360" y="151" width="300" height="28" rx="14" fill="#020407" stroke="#00D4FF" stroke-opacity="0.28"/>
  <path d="M214 236h152M214 286h116M214 336h140M214 386h92M214 436h132" stroke="#00D4FF" stroke-width="10" stroke-linecap="round" opacity="0.45"/>
  <rect x="414" y="236" width="236" height="136" rx="18" fill="#0A1116" stroke="#00D4FF" stroke-opacity="0.45"/>
  <rect x="686" y="236" width="274" height="136" rx="18" fill="#0A1116" stroke="#00D4FF" stroke-opacity="0.45"/>
  <rect x="414" y="404" width="546" height="118" rx="18" fill="#0A1116" stroke="#00D4FF" stroke-opacity="0.45"/>
  <path d="M456 332V278M508 332V302M560 332V260M612 332V292" stroke="#00D4FF" stroke-width="16" stroke-linecap="round"/>
  <path d="M730 284h182M730 324h132" stroke="#00D4FF" stroke-width="10" stroke-linecap="round" opacity="0.7"/>
  <path d="M456 466h128M456 494h236M456 438h84" stroke="#00D4FF" stroke-width="9" stroke-linecap="round" opacity="0.65"/>
  <path d="M774 466l38 38 78-92" stroke="#00D4FF" stroke-width="16" stroke-linecap="round" stroke-linejoin="round"/>
  <text x="188" y="86" fill="#F0F0F0" font-family="Inter, Arial, sans-serif" font-size="44" font-weight="700">SaaS Operations Platform</text>
  <text x="188" y="624" fill="#00D4FF" font-family="JetBrains Mono, monospace" font-size="22">REACT · NESTJS · AUTH · API REST · POSTGRESQL</text>
</svg>
