<svg width="1200" height="680" viewBox="0 0 1200 680" fill="none" xmlns="http://www.w3.org/2000/svg" role="img" aria-labelledby="title desc">
  <title id="title">Arquitectura de ingeniería de datos industrial</title>
  <desc id="desc">Diagrama visual de sensores, pipeline ETL, data lake, warehouse y dashboard operativo.</desc>
  <rect width="1200" height="680" fill="#020407"/>
  <defs>
    <radialGradient id="glow" cx="0" cy="0" r="1" gradientUnits="userSpaceOnUse" gradientTransform="translate(950 120) rotate(139) scale(760 650)">
      <stop stop-color="#00D4FF" stop-opacity="0.28"/>
      <stop offset="0.42" stop-color="#00D4FF" stop-opacity="0.06"/>
      <stop offset="1" stop-color="#00D4FF" stop-opacity="0"/>
    </radialGradient>
    <linearGradient id="line" x1="220" y1="320" x2="980" y2="320" gradientUnits="userSpaceOnUse">
      <stop stop-color="#00D4FF" stop-opacity="0.25"/>
      <stop offset="0.5" stop-color="#00D4FF"/>
      <stop offset="1" stop-color="#00D4FF" stop-opacity="0.25"/>
    </linearGradient>
    <filter id="blur"><feGaussianBlur stdDeviation="8"/></filter>
  </defs>
  <rect width="1200" height="680" fill="url(#glow)"/>
  <g opacity="0.22" stroke="#1D7C91" stroke-width="1">
    <path d="M0 110H1200M0 220H1200M0 330H1200M0 440H1200M0 550H1200"/>
    <path d="M120 0V680M240 0V680M360 0V680M480 0V680M600 0V680M720 0V680M840 0V680M960 0V680M1080 0V680"/>
  </g>
  <g stroke="url(#line)" stroke-width="4" stroke-linecap="round" opacity="0.85">
    <path d="M202 330H358"/>
    <path d="M490 330H658"/>
    <path d="M790 330H952"/>
  </g>
  <g fill="#00D4FF" opacity="0.85">
    <circle cx="280" cy="330" r="7"/>
    <circle cx="575" cy="330" r="7"/>
    <circle cx="875" cy="330" r="7"/>
  </g>
  <g filter="url(#blur)" opacity="0.6" fill="#00D4FF">
    <circle cx="150" cy="330" r="58"/>
    <circle cx="420" cy="330" r="58"/>
    <circle cx="725" cy="330" r="58"/>
    <circle cx="1030" cy="330" r="58"/>
  </g>
  <g>
    <rect x="72" y="220" width="170" height="220" rx="18" fill="#071014" stroke="#00D4FF" stroke-opacity="0.55"/>
    <path d="M115 302h84M115 337h84M115 372h84" stroke="#00D4FF" stroke-width="8" stroke-linecap="round"/>
    <circle cx="115" cy="269" r="14" fill="#00D4FF" fill-opacity="0.85"/>
    <circle cx="157" cy="269" r="14" fill="#00D4FF" fill-opacity="0.35"/>
    <circle cx="199" cy="269" r="14" fill="#00D4FF" fill-opacity="0.18"/>
    <text x="157" y="492" fill="#8A8A8A" font-family="JetBrains Mono, monospace" font-size="22" text-anchor="middle">SENSORES / MODBUS</text>
  </g>
  <g>
    <rect x="340" y="214" width="190" height="232" rx="22" fill="#071014" stroke="#00D4FF" stroke-opacity="0.75"/>
    <path d="M386 365c34-92 68 82 105-30" stroke="#00D4FF" stroke-width="10" stroke-linecap="round" fill="none"/>
    <path d="M386 300h102M386 330h72" stroke="#00D4FF" stroke-width="6" stroke-linecap="round" opacity="0.45"/>
    <text x="435" y="492" fill="#8A8A8A" font-family="JetBrains Mono, monospace" font-size="22" text-anchor="middle">ETL / VALIDACIÓN</text>
  </g>
  <g>
    <rect x="640" y="210" width="190" height="240" rx="22" fill="#071014" stroke="#00D4FF" stroke-opacity="0.75"/>
    <ellipse cx="735" cy="272" rx="64" ry="22" stroke="#00D4FF" stroke-width="8"/>
    <path d="M671 272v92c0 13 29 24 64 24s64-11 64-24v-92" stroke="#00D4FF" stroke-width="8" fill="none"/>
    <path d="M671 318c0 13 29 24 64 24s64-11 64-24" stroke="#00D4FF" stroke-width="8" fill="none" opacity="0.45"/>
    <text x="735" y="492" fill="#8A8A8A" font-family="JetBrains Mono, monospace" font-size="22" text-anchor="middle">DATA LAKE / WH</text>
  </g>
  <g>
    <rect x="946" y="220" width="182" height="220" rx="18" fill="#071014" stroke="#00D4FF" stroke-opacity="0.55"/>
    <path d="M990 376V322M1038 376V283M1086 376V340" stroke="#00D4FF" stroke-width="16" stroke-linecap="round"/>
    <path d="M986 276h102" stroke="#00D4FF" stroke-width="7" stroke-linecap="round" opacity="0.45"/>
    <text x="1037" y="492" fill="#8A8A8A" font-family="JetBrains Mono, monospace" font-size="22" text-anchor="middle">DASHBOARD / ALERTAS</text>
  </g>
  <text x="72" y="86" fill="#F0F0F0" font-family="Inter, Arial, sans-serif" font-size="44" font-weight="700">Industrial Data Pipeline</text>
  <text x="72" y="130" fill="#00D4FF" font-family="JetBrains Mono, monospace" font-size="22">INGESTA · ETL · CALIDAD · ANALÍTICA</text>
</svg>
